<mxfile host="app.diagrams.net" modified="2023-10-08T09:30:04.755Z" agent="Mozilla/5.0 (Windows NT 10.0; Win64; x64) AppleWebKit/537.36 (KHTML, like Gecko) Chrome/117.0.0.0 Safari/537.36" etag="vagMOzCQ4T-R8sxEBDQ7" version="22.0.0" type="github">
  <diagram name="ページ1" id="fi7y1vEESTEufle_R_ST">
    <mxGraphModel dx="712" dy="740" grid="1" gridSize="10" guides="1" tooltips="1" connect="1" arrows="1" fold="1" page="1" pageScale="1" pageWidth="827" pageHeight="1169" math="0" shadow="0">
      <root>
        <mxCell id="0" />
        <mxCell id="1" parent="0" />
        <mxCell id="ZsW29QYsuvRFYdDaHSDv-5" style="edgeStyle=orthogonalEdgeStyle;rounded=0;orthogonalLoop=1;jettySize=auto;html=1;entryX=0;entryY=0.5;entryDx=0;entryDy=0;" parent="1" source="ZsW29QYsuvRFYdDaHSDv-1" target="ZsW29QYsuvRFYdDaHSDv-3" edge="1">
          <mxGeometry relative="1" as="geometry" />
        </mxCell>
        <mxCell id="ZsW29QYsuvRFYdDaHSDv-9" style="edgeStyle=orthogonalEdgeStyle;rounded=0;orthogonalLoop=1;jettySize=auto;html=1;entryX=0;entryY=0.5;entryDx=0;entryDy=0;" parent="1" source="ZsW29QYsuvRFYdDaHSDv-1" target="ZsW29QYsuvRFYdDaHSDv-7" edge="1">
          <mxGeometry relative="1" as="geometry" />
        </mxCell>
        <mxCell id="ZsW29QYsuvRFYdDaHSDv-1" value="home" style="whiteSpace=wrap;html=1;aspect=fixed;" parent="1" vertex="1">
          <mxGeometry x="10" y="10" width="80" height="80" as="geometry" />
        </mxCell>
        <mxCell id="ZsW29QYsuvRFYdDaHSDv-2" value="・PungPalsの説明&lt;br&gt;・sign in, log in" style="text;html=1;strokeColor=none;fillColor=none;align=left;verticalAlign=top;whiteSpace=wrap;rounded=0;" parent="1" vertex="1">
          <mxGeometry x="10" y="90" width="80" height="70" as="geometry" />
        </mxCell>
        <mxCell id="pIzTvPScTuaP-fJWwFuk-1" style="edgeStyle=orthogonalEdgeStyle;rounded=0;orthogonalLoop=1;jettySize=auto;html=1;" parent="1" source="ZsW29QYsuvRFYdDaHSDv-3" target="unB-rzWUIBHJed2L6JiL-1" edge="1">
          <mxGeometry relative="1" as="geometry" />
        </mxCell>
        <mxCell id="ZsW29QYsuvRFYdDaHSDv-3" value="sign in" style="whiteSpace=wrap;html=1;aspect=fixed;" parent="1" vertex="1">
          <mxGeometry x="140" y="10" width="80" height="80" as="geometry" />
        </mxCell>
        <mxCell id="ZsW29QYsuvRFYdDaHSDv-6" value="・ユーザー名、パスワード設定" style="text;html=1;strokeColor=none;fillColor=none;align=left;verticalAlign=middle;whiteSpace=wrap;rounded=0;" parent="1" vertex="1">
          <mxGeometry x="140" y="90" width="70" height="60" as="geometry" />
        </mxCell>
        <mxCell id="pIzTvPScTuaP-fJWwFuk-2" style="edgeStyle=orthogonalEdgeStyle;rounded=0;orthogonalLoop=1;jettySize=auto;html=1;entryX=0;entryY=0.5;entryDx=0;entryDy=0;" parent="1" source="ZsW29QYsuvRFYdDaHSDv-7" target="unB-rzWUIBHJed2L6JiL-1" edge="1">
          <mxGeometry relative="1" as="geometry">
            <mxPoint x="250" y="50" as="targetPoint" />
          </mxGeometry>
        </mxCell>
        <mxCell id="ZsW29QYsuvRFYdDaHSDv-7" value="log in" style="whiteSpace=wrap;html=1;aspect=fixed;" parent="1" vertex="1">
          <mxGeometry x="135" y="160" width="80" height="80" as="geometry" />
        </mxCell>
        <mxCell id="ZsW29QYsuvRFYdDaHSDv-8" value="・ユーザー名、パスワードの入力" style="text;html=1;strokeColor=none;fillColor=none;align=left;verticalAlign=middle;whiteSpace=wrap;rounded=0;" parent="1" vertex="1">
          <mxGeometry x="135" y="240" width="75" height="50" as="geometry" />
        </mxCell>
        <mxCell id="0FzYSn5tiL9xqLlkb21n-3" style="edgeStyle=orthogonalEdgeStyle;rounded=0;orthogonalLoop=1;jettySize=auto;html=1;entryX=0;entryY=0.5;entryDx=0;entryDy=0;" parent="1" source="unB-rzWUIBHJed2L6JiL-1" target="0FzYSn5tiL9xqLlkb21n-1" edge="1">
          <mxGeometry relative="1" as="geometry" />
        </mxCell>
        <mxCell id="YuniV2DQdlvxfhASZftC-8" style="edgeStyle=orthogonalEdgeStyle;rounded=0;orthogonalLoop=1;jettySize=auto;html=1;entryX=0;entryY=0.5;entryDx=0;entryDy=0;" edge="1" parent="1" source="unB-rzWUIBHJed2L6JiL-1" target="0FzYSn5tiL9xqLlkb21n-4">
          <mxGeometry relative="1" as="geometry" />
        </mxCell>
        <mxCell id="unB-rzWUIBHJed2L6JiL-1" value="user_home" style="whiteSpace=wrap;html=1;aspect=fixed;" parent="1" vertex="1">
          <mxGeometry x="280" y="10" width="80" height="80" as="geometry" />
        </mxCell>
        <mxCell id="unB-rzWUIBHJed2L6JiL-2" value="・所属している部屋を表示&lt;br&gt;・一覧から削除可能&lt;br&gt;・部屋作成ボタン&lt;br&gt;・部屋参加ボタン" style="text;html=1;strokeColor=none;fillColor=none;align=left;verticalAlign=middle;whiteSpace=wrap;rounded=0;" parent="1" vertex="1">
          <mxGeometry x="280" y="90" width="90" height="120" as="geometry" />
        </mxCell>
        <mxCell id="oilHDclysq6Vdej6ONky-4" style="edgeStyle=orthogonalEdgeStyle;rounded=0;orthogonalLoop=1;jettySize=auto;html=1;entryX=1;entryY=0.5;entryDx=0;entryDy=0;" parent="1" source="0FzYSn5tiL9xqLlkb21n-1" target="0FzYSn5tiL9xqLlkb21n-7" edge="1">
          <mxGeometry relative="1" as="geometry">
            <Array as="points">
              <mxPoint x="517" y="50" />
              <mxPoint x="517" y="370" />
            </Array>
          </mxGeometry>
        </mxCell>
        <mxCell id="0FzYSn5tiL9xqLlkb21n-1" value="create_room" style="whiteSpace=wrap;html=1;aspect=fixed;" parent="1" vertex="1">
          <mxGeometry x="414" y="10" width="80" height="80" as="geometry" />
        </mxCell>
        <mxCell id="0FzYSn5tiL9xqLlkb21n-2" value="・作成ボタン&lt;br&gt;・部屋IDとパスワードを設定" style="text;html=1;strokeColor=none;fillColor=none;align=left;verticalAlign=middle;whiteSpace=wrap;rounded=0;" parent="1" vertex="1">
          <mxGeometry x="414" y="90" width="86" height="60" as="geometry" />
        </mxCell>
        <mxCell id="oilHDclysq6Vdej6ONky-5" style="edgeStyle=orthogonalEdgeStyle;rounded=0;orthogonalLoop=1;jettySize=auto;html=1;entryX=1;entryY=0.5;entryDx=0;entryDy=0;" parent="1" source="0FzYSn5tiL9xqLlkb21n-4" target="0FzYSn5tiL9xqLlkb21n-7" edge="1">
          <mxGeometry relative="1" as="geometry">
            <Array as="points">
              <mxPoint x="517" y="200" />
              <mxPoint x="517" y="370" />
            </Array>
          </mxGeometry>
        </mxCell>
        <mxCell id="0FzYSn5tiL9xqLlkb21n-4" value="join_room" style="whiteSpace=wrap;html=1;aspect=fixed;" parent="1" vertex="1">
          <mxGeometry x="414" y="160" width="80" height="80" as="geometry" />
        </mxCell>
        <mxCell id="0FzYSn5tiL9xqLlkb21n-5" value="・参加ボタン&lt;br&gt;・部屋IDとパスワードを入力" style="text;html=1;strokeColor=none;fillColor=none;align=left;verticalAlign=middle;whiteSpace=wrap;rounded=0;" parent="1" vertex="1">
          <mxGeometry x="414" y="240" width="76" height="70" as="geometry" />
        </mxCell>
        <mxCell id="oilHDclysq6Vdej6ONky-2" style="edgeStyle=orthogonalEdgeStyle;rounded=0;orthogonalLoop=1;jettySize=auto;html=1;entryX=0;entryY=0.5;entryDx=0;entryDy=0;" parent="1" source="0FzYSn5tiL9xqLlkb21n-7" target="oilHDclysq6Vdej6ONky-1" edge="1">
          <mxGeometry relative="1" as="geometry" />
        </mxCell>
        <mxCell id="YuniV2DQdlvxfhASZftC-3" style="edgeStyle=orthogonalEdgeStyle;rounded=0;orthogonalLoop=1;jettySize=auto;html=1;entryX=0;entryY=0.5;entryDx=0;entryDy=0;" edge="1" parent="1" source="0FzYSn5tiL9xqLlkb21n-7" target="YuniV2DQdlvxfhASZftC-1">
          <mxGeometry relative="1" as="geometry" />
        </mxCell>
        <mxCell id="YuniV2DQdlvxfhASZftC-7" style="edgeStyle=orthogonalEdgeStyle;rounded=0;orthogonalLoop=1;jettySize=auto;html=1;entryX=0;entryY=0.5;entryDx=0;entryDy=0;" edge="1" parent="1" source="0FzYSn5tiL9xqLlkb21n-7" target="YuniV2DQdlvxfhASZftC-5">
          <mxGeometry relative="1" as="geometry" />
        </mxCell>
        <mxCell id="0FzYSn5tiL9xqLlkb21n-7" value="room_home" style="whiteSpace=wrap;html=1;aspect=fixed;" parent="1" vertex="1">
          <mxGeometry x="417" y="330" width="80" height="80" as="geometry" />
        </mxCell>
        <mxCell id="0FzYSn5tiL9xqLlkb21n-8" style="edgeStyle=orthogonalEdgeStyle;rounded=0;orthogonalLoop=1;jettySize=auto;html=1;entryX=-0.004;entryY=0.6;entryDx=0;entryDy=0;entryPerimeter=0;" parent="1" source="unB-rzWUIBHJed2L6JiL-1" target="0FzYSn5tiL9xqLlkb21n-7" edge="1">
          <mxGeometry relative="1" as="geometry" />
        </mxCell>
        <mxCell id="0FzYSn5tiL9xqLlkb21n-9" value="・対局登録ボタン&lt;br&gt;・対局削除ボタン&lt;br&gt;・ランキングボタン&lt;br&gt;・部屋IDとパスワード表示&lt;br&gt;・user_homeに戻るボタン" style="text;html=1;strokeColor=none;fillColor=none;align=left;verticalAlign=middle;whiteSpace=wrap;rounded=0;" parent="1" vertex="1">
          <mxGeometry x="417" y="410" width="83" height="150" as="geometry" />
        </mxCell>
        <mxCell id="oilHDclysq6Vdej6ONky-1" value="register_result" style="whiteSpace=wrap;html=1;aspect=fixed;" parent="1" vertex="1">
          <mxGeometry x="560" y="160" width="80" height="80" as="geometry" />
        </mxCell>
        <mxCell id="oilHDclysq6Vdej6ONky-3" value="・三麻か四麻か選択&lt;br&gt;・何家かと点数を登録&lt;br&gt;・room_homeに戻るボタン&lt;br&gt;" style="text;html=1;strokeColor=none;fillColor=none;align=left;verticalAlign=middle;whiteSpace=wrap;rounded=0;" parent="1" vertex="1">
          <mxGeometry x="560" y="240" width="80" height="90" as="geometry" />
        </mxCell>
        <mxCell id="YuniV2DQdlvxfhASZftC-1" value="ranking" style="whiteSpace=wrap;html=1;aspect=fixed;" vertex="1" parent="1">
          <mxGeometry x="560" y="500" width="80" height="80" as="geometry" />
        </mxCell>
        <mxCell id="YuniV2DQdlvxfhASZftC-2" value="・三麻か四麻か選択&lt;br&gt;・room_homeに戻るボタン" style="text;html=1;strokeColor=none;fillColor=none;align=left;verticalAlign=middle;whiteSpace=wrap;rounded=0;" vertex="1" parent="1">
          <mxGeometry x="560" y="580" width="80" height="70" as="geometry" />
        </mxCell>
        <mxCell id="YuniV2DQdlvxfhASZftC-5" value="delete_result" style="whiteSpace=wrap;html=1;aspect=fixed;" vertex="1" parent="1">
          <mxGeometry x="560" y="330" width="80" height="80" as="geometry" />
        </mxCell>
        <mxCell id="YuniV2DQdlvxfhASZftC-6" value="・対局一覧から削除するのを選ぶ&lt;br&gt;・room_homeに戻るボタン" style="text;html=1;strokeColor=none;fillColor=none;align=left;verticalAlign=middle;whiteSpace=wrap;rounded=0;" vertex="1" parent="1">
          <mxGeometry x="560" y="410" width="80" height="80" as="geometry" />
        </mxCell>
      </root>
    </mxGraphModel>
  </diagram>
</mxfile>
